<?xml version="1.0"?>
<svg xmlns="http://www.w3.org/2000/svg" viewBox="0 0 640 659" role="img" aria-label="Pulsar logo">
  <title>Pulsar logo</title>
  <g fill="#050505" fill-rule="nonzero">
    <path d="M 49 27 L 46 30 L 45 30 L 32 43 L 32 44 L 24 54 L 17 67 L 17 69 L 15 72 L 15 74 L 14 75 L 14 77 L 11 84 L 11 88 L 10 89 L 10 94 L 9 95 L 9 104 L 8 105 L 8 244 L 86 322 L 87 321 L 92 321 L 93 320 L 99 320 L 100 319 L 105 319 L 106 318 L 111 318 L 112 317 L 118 317 L 119 316 L 124 316 L 125 315 L 130 315 L 131 314 L 136 314 L 137 313 L 143 313 L 144 312 L 149 312 L 150 311 L 155 311 L 156 310 L 161 310 L 162 309 L 168 309 L 169 308 L 174 308 L 175 307 L 181 307 L 182 306 L 187 306 L 188 305 L 193 305 L 194 304 L 200 304 L 201 303 L 206 303 L 207 302 L 213 302 L 214 301 L 219 301 L 220 300 L 226 300 L 227 299 L 232 299 L 233 298 L 238 298 L 239 297 L 244 297 L 246 296 L 244 292 L 242 290 L 241 287 L 233 276 L 229 268 L 221 257 L 217 249 L 206 233 L 205 230 L 201 225 L 197 217 L 186 201 L 185 198 L 179 190 L 175 182 L 176 181 L 178 183 L 191 191 L 194 194 L 223 213 L 233 221 L 243 227 L 246 230 L 266 243 L 269 246 L 279 252 L 285 257 L 286 256 L 286 250 L 287 249 L 288 236 L 289 235 L 290 223 L 291 222 L 291 217 L 292 216 L 293 203 L 294 202 L 294 197 L 295 196 L 295 190 L 296 189 L 296 183 L 297 182 L 298 169 L 299 168 L 299 163 L 300 162 L 300 155 L 301 154 L 302 141 L 303 140 L 303 135 L 304 134 L 304 128 L 305 127 L 305 121 L 306 120 L 306 114 L 307 113 L 307 107 L 308 106 L 308 100 L 309 99 L 309 92 L 310 91 L 310 87 L 300 77 L 300 76 L 238 14 L 238 13 L 233 8 L 95 8 L 94 9 L 89 9 L 88 10 L 85 10 L 84 11 L 81 11 L 80 12 L 72 14 L 58 21 L 56 23 Z"></path>
    <path d="M 408 8 L 331 86 L 332 100 L 333 101 L 333 106 L 334 107 L 334 113 L 335 114 L 335 120 L 336 121 L 336 127 L 337 128 L 337 135 L 338 136 L 338 142 L 339 143 L 339 148 L 340 149 L 340 156 L 341 157 L 341 162 L 342 163 L 342 169 L 343 170 L 343 176 L 344 177 L 345 190 L 346 191 L 346 196 L 347 197 L 348 211 L 349 212 L 349 217 L 350 218 L 350 224 L 351 225 L 351 231 L 352 232 L 352 237 L 353 238 L 353 244 L 354 245 L 355 257 L 465 181 L 466 183 L 455 199 L 448 212 L 437 228 L 436 231 L 432 236 L 431 239 L 427 244 L 426 247 L 422 252 L 421 255 L 410 271 L 409 274 L 405 279 L 404 282 L 400 287 L 399 290 L 397 292 L 395 296 L 397 297 L 401 297 L 402 298 L 408 298 L 409 299 L 414 299 L 415 300 L 420 300 L 421 301 L 434 302 L 435 303 L 440 303 L 441 304 L 446 304 L 447 305 L 452 305 L 453 306 L 459 306 L 460 307 L 465 307 L 466 308 L 472 308 L 473 309 L 478 309 L 479 310 L 484 310 L 485 311 L 491 311 L 492 312 L 497 312 L 498 313 L 503 313 L 504 314 L 510 314 L 511 315 L 516 315 L 517 316 L 522 316 L 523 317 L 529 317 L 530 318 L 535 318 L 536 319 L 541 319 L 542 320 L 548 320 L 549 321 L 554 321 L 555 322 L 632 244 L 632 98 L 631 97 L 631 90 L 630 89 L 628 78 L 625 72 L 625 70 L 623 67 L 623 65 L 621 61 L 619 59 L 617 54 L 612 48 L 612 47 L 597 31 L 596 31 L 592 27 L 591 27 L 583 21 L 569 14 L 567 14 L 560 11 L 557 11 L 556 10 L 553 10 L 552 9 L 547 9 L 546 8 Z"></path>
    <path d="M 85 343 L 80 348 L 80 349 L 17 412 L 17 413 L 10 419 L 9 421 L 9 564 L 10 565 L 10 570 L 11 571 L 13 582 L 16 588 L 16 590 L 22 602 L 24 604 L 28 611 L 31 614 L 31 615 L 46 630 L 47 630 L 58 638 L 72 645 L 74 645 L 81 648 L 89 649 L 90 650 L 96 650 L 97 651 L 233 651 L 309 574 L 309 568 L 308 567 L 308 561 L 307 560 L 307 553 L 306 552 L 305 540 L 304 539 L 304 533 L 303 532 L 303 526 L 302 525 L 302 520 L 301 519 L 300 504 L 299 503 L 299 498 L 298 497 L 298 491 L 297 490 L 297 484 L 296 483 L 295 470 L 294 469 L 293 457 L 292 456 L 292 450 L 291 449 L 291 444 L 290 443 L 290 437 L 289 436 L 289 430 L 288 429 L 288 423 L 287 422 L 286 409 L 284 408 L 275 415 L 246 434 L 243 437 L 224 449 L 221 452 L 220 452 L 218 454 L 208 460 L 205 463 L 189 473 L 186 476 L 176 482 L 175 480 L 186 464 L 187 461 L 198 445 L 199 442 L 203 437 L 204 434 L 208 429 L 209 426 L 215 418 L 216 415 L 229 396 L 233 388 L 239 380 L 240 377 L 242 375 L 246 368 L 244 367 L 238 367 L 237 366 L 225 365 L 224 364 L 219 364 L 218 363 L 213 363 L 212 362 L 200 361 L 199 360 L 193 360 L 192 359 L 187 359 L 186 358 L 180 358 L 179 357 L 174 357 L 173 356 L 167 356 L 166 355 L 161 355 L 160 354 L 155 354 L 154 353 L 149 353 L 148 352 L 142 352 L 141 351 L 136 351 L 135 350 L 130 350 L 129 349 L 123 349 L 122 348 L 117 348 L 116 347 L 110 347 L 109 346 L 104 346 L 103 345 L 98 345 L 97 344 Z"></path>
    <path d="M 555 343 L 544 344 L 543 345 L 538 345 L 537 346 L 531 346 L 530 347 L 525 347 L 524 348 L 519 348 L 518 349 L 512 349 L 511 350 L 506 350 L 505 351 L 500 351 L 499 352 L 493 352 L 492 353 L 487 353 L 486 354 L 481 354 L 480 355 L 474 355 L 473 356 L 468 356 L 467 357 L 461 357 L 460 358 L 448 359 L 447 360 L 442 360 L 441 361 L 436 361 L 435 362 L 423 363 L 422 364 L 410 365 L 409 366 L 404 366 L 403 367 L 398 367 L 397 368 L 395 368 L 398 374 L 409 390 L 410 393 L 423 412 L 427 420 L 433 428 L 434 431 L 441 441 L 442 444 L 448 452 L 449 455 L 451 457 L 451 458 L 455 463 L 456 466 L 458 468 L 459 471 L 463 476 L 464 479 L 466 481 L 465 482 L 462 481 L 459 478 L 446 470 L 443 467 L 427 457 L 424 454 L 405 442 L 402 439 L 392 433 L 389 430 L 373 420 L 370 417 L 369 417 L 355 407 L 354 419 L 353 420 L 353 426 L 352 427 L 352 433 L 351 434 L 351 440 L 350 441 L 349 453 L 348 454 L 348 460 L 347 461 L 347 467 L 346 468 L 345 480 L 344 481 L 344 487 L 343 488 L 342 500 L 341 501 L 340 513 L 339 514 L 338 526 L 337 527 L 337 533 L 336 534 L 336 539 L 335 540 L 335 547 L 334 548 L 333 561 L 332 562 L 332 567 L 331 568 L 331 574 L 408 651 L 545 651 L 546 650 L 551 650 L 552 649 L 563 647 L 583 638 L 596 628 L 597 628 L 612 612 L 623 594 L 623 592 L 625 589 L 625 587 L 627 584 L 627 581 L 629 577 L 630 569 L 631 568 L 631 560 L 632 559 L 632 422 Z"></path>
  </g>
</svg>